<svg width="465" height="51" viewBox="0 0 465 51" fill="none" xmlns="http://www.w3.org/2000/svg">
<path d="M64.35 5.13C61.11 1.71 56.88 0 51.75 0C33.12 0 23.4 0 22.5 0H21.78H4.31999C3.14999 0 2.06999 0.449999 1.25999 1.26C0.359994 2.16 0 3.15 0 4.32C0 4.41 0 4.59 0 4.77C0 4.95 0 5.04 0 5.13V45.18C0 46.53 0.359994 47.61 1.25999 48.51C2.15999 49.41 3.24 49.77 4.59 49.77C5.94 49.77 7.02 49.41 7.92 48.51C8.73 47.61 9.17999 46.53 9.17999 45.18V19.8C9.17999 16.47 10.17 13.77 12.15 11.52C14.13 9.36 16.74 8.28 19.98 8.28C23.04 8.28 25.47 9.27 27.27 11.16C29.07 13.05 30.06 15.84 30.06 19.44V45.18C30.06 46.53 30.42 47.61 31.32 48.51C32.22 49.41 33.3 49.77 34.65 49.77C36 49.77 37.08 49.41 37.98 48.51C38.79 47.61 39.24 46.53 39.24 45.18V19.8C39.24 16.47 40.23 13.77 42.21 11.52C44.19 9.36 46.8 8.28 49.95 8.28C53.01 8.28 55.44 9.27 57.24 11.16C59.04 13.05 60.03 15.84 60.03 19.44V45.18C60.03 46.53 60.39 47.61 61.29 48.51C62.19 49.41 63.27 49.77 64.62 49.77C65.97 49.77 67.05 49.41 67.95 48.51C68.76 47.61 69.21 46.53 69.21 45.18V19.44C69.21 13.32 67.59 8.55 64.35 5.13Z" fill="#E4AF78"/>
<path d="M138.74 3.24C134.96 1.08 130.73 0 126.05 0C121.19 0 116.96 1.08 113.18 3.24C109.4 5.4 106.43 8.28 104.36 12.06C102.2 15.84 101.21 20.16 101.21 25.02C101.21 29.88 102.2 34.11 104.36 37.89C106.43 41.67 109.4 44.64 113.18 46.8C116.96 48.96 121.19 49.95 126.05 49.95C130.82 49.95 135.05 48.96 138.83 46.8C142.61 44.64 145.49 41.67 147.65 37.89C149.72 34.11 150.8 29.88 150.8 25.02C150.8 20.16 149.72 15.84 147.56 12.06C145.4 8.28 142.52 5.4 138.74 3.24ZM117.77 10.26C120.2 8.82 122.99 8.1 126.05 8.1C129.11 8.1 131.81 8.82 134.24 10.26C136.67 11.7 138.56 13.77 139.91 16.29C141.26 18.9 141.98 21.78 141.98 25.02C141.98 28.26 141.26 31.23 139.91 33.75C138.56 36.27 136.67 38.25 134.24 39.69C131.81 41.13 129.11 41.85 126.05 41.85C122.99 41.85 120.2 41.13 117.77 39.69C115.34 38.25 113.45 36.27 112.1 33.75C110.66 31.23 110.03 28.26 110.03 25.02C110.03 21.78 110.66 18.9 112.1 16.29C113.45 13.77 115.34 11.7 117.77 10.26Z" fill="#FAC87E"/>
<path d="M224.83 8.1C220.15 2.7 214.21 0 207.19 0C202.51 0 198.28 1.08 194.59 3.24C190.81 5.4 187.93 8.37 185.86 12.15C183.79 15.93 182.8 20.25 182.8 25.02C182.8 29.7 183.79 34.02 185.95 37.8C188.11 41.58 191.08 44.55 194.86 46.71C198.64 48.87 202.87 49.95 207.64 49.95C214.12 49.95 219.52 47.97 223.84 43.92C224.56 43.2 224.92 42.39 224.92 41.49C224.92 40.32 224.29 39.24 223.21 38.25C222.49 37.71 221.68 37.44 220.87 37.44C219.79 37.44 218.62 37.89 217.54 38.7C215.02 40.86 211.69 41.85 207.64 41.85C204.49 41.85 201.7 41.13 199.27 39.69C196.84 38.25 194.95 36.27 193.6 33.75C192.25 31.23 191.62 28.26 191.62 25.02C191.62 19.98 193.06 15.84 195.94 12.78C198.82 9.72 202.51 8.1 207.19 8.1C209.44 8.1 211.42 8.55 213.22 9.27C215.02 9.99 216.64 11.16 218.17 12.78C219.07 13.86 220.24 14.4 221.68 14.4C222.4 14.4 223.12 14.22 223.75 13.77C225.01 12.87 225.73 11.79 225.73 10.44C225.73 9.54 225.37 8.82 224.83 8.1Z" fill="#F2C482"/>
<path d="M307.32 25.02C307.32 20.43 306.15 16.11 303.99 12.33C301.83 8.55 298.86 5.49 295.08 3.33C291.3 1.17 287.16 0 282.57 0C277.89 0 273.66 1.17 269.88 3.33C266.1 5.49 263.13 8.55 260.97 12.33C258.81 16.11 257.73 20.34 257.73 25.02C257.73 29.7 258.72 34.02 260.7 37.8C262.68 41.58 265.47 44.55 268.98 46.71C272.58 48.96 276.45 50.04 280.77 50.04H281.49H303C304.17 50.04 305.16 49.59 306.06 48.78C306.87 47.97 307.32 46.98 307.32 45.72V45.09V25.02ZM268.62 33.66C267.18 31.14 266.55 28.26 266.55 25.02C266.55 21.87 267.18 18.99 268.62 16.38C270.06 13.86 271.95 11.79 274.38 10.35C276.81 8.91 279.51 8.1 282.57 8.1C285.54 8.1 288.24 8.91 290.67 10.35C293.1 11.79 294.99 13.86 296.43 16.38C297.78 18.99 298.5 21.87 298.5 25.02C298.5 28.26 297.78 31.14 296.43 33.66C294.99 36.18 293.1 38.25 290.67 39.69C288.24 41.13 285.54 41.85 282.57 41.85C279.51 41.85 276.81 41.13 274.38 39.69C271.95 38.25 270.06 36.18 268.62 33.66Z" fill="#EDC183"/>
<path d="M382.7 10.62C380.81 7.2 378.2 4.5 374.96 2.7C371.81 1.08 368.39 0.179998 364.61 0.0899982C364.52 0.0899982 364.34 0 364.34 0H343.64C342.38 0 341.39 0.449999 340.58 1.26C339.68 2.16 339.32 3.15 339.32 4.32C339.32 4.41 339.32 4.59 339.32 4.68C339.32 4.86 339.32 4.95 339.32 5.04V45.18C339.32 46.53 339.68 47.61 340.58 48.51C341.48 49.41 342.56 49.77 343.91 49.77C345.26 49.77 346.34 49.41 347.24 48.51C348.05 47.61 348.5 46.53 348.5 45.18V19.8C348.5 17.64 349.04 15.75 350.21 13.95C351.38 12.24 353 10.89 355.07 9.81C357.14 8.82 359.48 8.28 362 8.28C366.32 8.28 369.74 9.54 372.35 12.06C374.96 14.58 376.31 18.27 376.31 23.04V45.18C376.31 46.53 376.67 47.61 377.57 48.51C378.47 49.41 379.55 49.77 380.9 49.77C382.16 49.77 383.24 49.41 384.14 48.51C385.04 47.61 385.49 46.53 385.49 45.18V23.04C385.49 18.18 384.5 14.04 382.7 10.62Z" fill="#F6C882"/>
<path d="M463.03 27.09C463.75 26.37 464.2 25.38 464.2 24.21C464.2 19.53 463.3 15.3 461.5 11.61C459.7 8.01 457.09 5.13 453.76 3.06C450.34 1.08 446.38 0 441.79 0C437.11 0 432.88 1.08 429.19 3.24C425.5 5.4 422.62 8.37 420.55 12.15C418.48 15.93 417.49 20.25 417.49 25.02C417.49 29.88 418.57 34.11 420.73 37.89C422.89 41.67 425.95 44.64 429.91 46.8C433.78 48.96 438.19 49.95 443.14 49.95C445.84 49.95 448.72 49.5 451.78 48.42C454.84 47.43 457.36 46.08 459.43 44.46C460.33 43.74 460.87 42.84 460.87 41.76C460.87 40.68 460.33 39.6 459.25 38.7C458.53 38.16 457.63 37.8 456.55 37.8C455.38 37.8 454.39 38.16 453.58 38.79C452.32 39.78 450.7 40.59 448.72 41.22C446.74 41.94 444.94 42.21 443.14 42.21C438.55 42.21 434.68 40.95 431.53 38.34C428.38 35.82 426.49 32.4 425.86 28.17H460.06C461.23 28.17 462.22 27.81 463.03 27.09ZM431.08 11.34C433.78 9 437.38 7.74 441.79 7.74C445.75 7.74 448.9 9 451.42 11.34C453.85 13.77 455.38 17.01 455.92 20.97H425.95C426.67 17.01 428.38 13.77 431.08 11.34Z" fill="#FFCE80"/>
</svg>
