<svg width="466" height="51" viewBox="0 0 466 51" fill="none" xmlns="http://www.w3.org/2000/svg">
<path d="M65.2499 5.13C62.0099 1.71 57.78 0 52.65 0C34.02 0 24.3 0 23.4 0H22.6799H5.21996C4.04996 0 2.96996 0.449999 2.15996 1.26C1.25996 2.16 0.899963 3.15 0.899963 4.32C0.899963 4.41 0.899963 4.59 0.899963 4.77C0.899963 4.95 0.899963 5.04 0.899963 5.13V45.18C0.899963 46.53 1.25996 47.61 2.15996 48.51C3.05996 49.41 4.13996 49.77 5.48996 49.77C6.83996 49.77 7.91996 49.41 8.81996 48.51C9.62996 47.61 10.08 46.53 10.08 45.18V19.8C10.08 16.47 11.07 13.77 13.05 11.52C15.03 9.36 17.6399 8.28 20.8799 8.28C23.9399 8.28 26.3699 9.27 28.1699 11.16C29.9699 13.05 30.9599 15.84 30.9599 19.44V45.18C30.9599 46.53 31.32 47.61 32.22 48.51C33.12 49.41 34.2 49.77 35.55 49.77C36.9 49.77 37.9799 49.41 38.8799 48.51C39.6899 47.61 40.14 46.53 40.14 45.18V19.8C40.14 16.47 41.1299 13.77 43.1099 11.52C45.0899 9.36 47.7 8.28 50.85 8.28C53.91 8.28 56.34 9.27 58.14 11.16C59.94 13.05 60.9299 15.84 60.9299 19.44V45.18C60.9299 46.53 61.2899 47.61 62.1899 48.51C63.0899 49.41 64.1699 49.77 65.5199 49.77C66.8699 49.77 67.9499 49.41 68.8499 48.51C69.6599 47.61 70.1099 46.53 70.1099 45.18V19.44C70.1099 13.32 68.4899 8.55 65.2499 5.13V5.13Z" fill="#01578E"/>
<path d="M139.64 3.24C135.86 1.08 131.63 0 126.95 0C122.09 0 117.86 1.08 114.08 3.24C110.3 5.4 107.33 8.28 105.26 12.06C103.1 15.84 102.11 20.16 102.11 25.02C102.11 29.88 103.1 34.11 105.26 37.89C107.33 41.67 110.3 44.64 114.08 46.8C117.86 48.96 122.09 49.95 126.95 49.95C131.72 49.95 135.95 48.96 139.73 46.8C143.51 44.64 146.39 41.67 148.55 37.89C150.62 34.11 151.7 29.88 151.7 25.02C151.7 20.16 150.62 15.84 148.46 12.06C146.3 8.28 143.42 5.4 139.64 3.24ZM118.67 10.26C121.1 8.82 123.89 8.1 126.95 8.1C130.01 8.1 132.71 8.82 135.14 10.26C137.57 11.7 139.46 13.77 140.81 16.29C142.16 18.9 142.88 21.78 142.88 25.02C142.88 28.26 142.16 31.23 140.81 33.75C139.46 36.27 137.57 38.25 135.14 39.69C132.71 41.13 130.01 41.85 126.95 41.85C123.89 41.85 121.1 41.13 118.67 39.69C116.24 38.25 114.35 36.27 113 33.75C111.56 31.23 110.93 28.26 110.93 25.02C110.93 21.78 111.56 18.9 113 16.29C114.35 13.77 116.24 11.7 118.67 10.26Z" fill="#01578E"/>
<path d="M225.73 8.1C221.05 2.7 215.11 0 208.09 0C203.41 0 199.18 1.08 195.49 3.24C191.71 5.4 188.83 8.37 186.76 12.15C184.69 15.93 183.7 20.25 183.7 25.02C183.7 29.7 184.69 34.02 186.85 37.8C189.01 41.58 191.98 44.55 195.76 46.71C199.54 48.87 203.77 49.95 208.54 49.95C215.02 49.95 220.42 47.97 224.74 43.92C225.46 43.2 225.82 42.39 225.82 41.49C225.82 40.32 225.19 39.24 224.11 38.25C223.39 37.71 222.58 37.44 221.77 37.44C220.69 37.44 219.52 37.89 218.44 38.7C215.92 40.86 212.59 41.85 208.54 41.85C205.39 41.85 202.6 41.13 200.17 39.69C197.74 38.25 195.85 36.27 194.5 33.75C193.15 31.23 192.52 28.26 192.52 25.02C192.52 19.98 193.96 15.84 196.84 12.78C199.72 9.72 203.41 8.1 208.09 8.1C210.34 8.1 212.32 8.55 214.12 9.27C215.92 9.99 217.54 11.16 219.07 12.78C219.97 13.86 221.14 14.4 222.58 14.4C223.3 14.4 224.02 14.22 224.65 13.77C225.91 12.87 226.63 11.79 226.63 10.44C226.63 9.54 226.27 8.82 225.73 8.1V8.1Z" fill="#01578E"/>
<path d="M308.22 25.02C308.22 20.43 307.05 16.11 304.89 12.33C302.73 8.55 299.76 5.49 295.98 3.33C292.2 1.17 288.06 0 283.47 0C278.79 0 274.56 1.17 270.78 3.33C267 5.49 264.03 8.55 261.87 12.33C259.71 16.11 258.63 20.34 258.63 25.02C258.63 29.7 259.62 34.02 261.6 37.8C263.58 41.58 266.37 44.55 269.88 46.71C273.48 48.96 277.35 50.04 281.67 50.04H282.39H303.9C305.07 50.04 306.06 49.59 306.96 48.78C307.77 47.97 308.22 46.98 308.22 45.72V45.09V25.02ZM269.52 33.66C268.08 31.14 267.45 28.26 267.45 25.02C267.45 21.87 268.08 18.99 269.52 16.38C270.96 13.86 272.85 11.79 275.28 10.35C277.71 8.91 280.41 8.1 283.47 8.1C286.44 8.1 289.14 8.91 291.57 10.35C294 11.79 295.89 13.86 297.33 16.38C298.68 18.99 299.4 21.87 299.4 25.02C299.4 28.26 298.68 31.14 297.33 33.66C295.89 36.18 294 38.25 291.57 39.69C289.14 41.13 286.44 41.85 283.47 41.85C280.41 41.85 277.71 41.13 275.28 39.69C272.85 38.25 270.96 36.18 269.52 33.66V33.66Z" fill="#01578E"/>
<path d="M383.6 10.62C381.71 7.2 379.1 4.5 375.86 2.7C372.71 1.08 369.29 0.179998 365.51 0.0899982C365.42 0.0899982 365.24 0 365.24 0H344.54C343.28 0 342.29 0.449999 341.48 1.26C340.58 2.16 340.22 3.15 340.22 4.32C340.22 4.41 340.22 4.59 340.22 4.68C340.22 4.86 340.22 4.95 340.22 5.04V45.18C340.22 46.53 340.58 47.61 341.48 48.51C342.38 49.41 343.46 49.77 344.81 49.77C346.16 49.77 347.24 49.41 348.14 48.51C348.95 47.61 349.4 46.53 349.4 45.18V19.8C349.4 17.64 349.94 15.75 351.11 13.95C352.28 12.24 353.9 10.89 355.97 9.81C358.04 8.82 360.38 8.28 362.9 8.28C367.22 8.28 370.64 9.54 373.25 12.06C375.86 14.58 377.21 18.27 377.21 23.04V45.18C377.21 46.53 377.57 47.61 378.47 48.51C379.37 49.41 380.45 49.77 381.8 49.77C383.06 49.77 384.14 49.41 385.04 48.51C385.94 47.61 386.39 46.53 386.39 45.18V23.04C386.39 18.18 385.4 14.04 383.6 10.62V10.62Z" fill="#01578E"/>
<path d="M463.93 27.09C464.65 26.37 465.1 25.38 465.1 24.21C465.1 19.53 464.2 15.3 462.4 11.61C460.6 8.01 457.99 5.13 454.66 3.06C451.24 1.08 447.28 0 442.69 0C438.01 0 433.78 1.08 430.09 3.24C426.4 5.4 423.52 8.37 421.45 12.15C419.38 15.93 418.39 20.25 418.39 25.02C418.39 29.88 419.47 34.11 421.63 37.89C423.79 41.67 426.85 44.64 430.81 46.8C434.68 48.96 439.09 49.95 444.04 49.95C446.74 49.95 449.62 49.5 452.68 48.42C455.74 47.43 458.26 46.08 460.33 44.46C461.23 43.74 461.77 42.84 461.77 41.76C461.77 40.68 461.23 39.6 460.15 38.7C459.43 38.16 458.53 37.8 457.45 37.8C456.28 37.8 455.29 38.16 454.48 38.79C453.22 39.78 451.6 40.59 449.62 41.22C447.64 41.94 445.84 42.21 444.04 42.21C439.45 42.21 435.58 40.95 432.43 38.34C429.28 35.82 427.39 32.4 426.76 28.17H460.96C462.13 28.17 463.12 27.81 463.93 27.09V27.09ZM431.98 11.34C434.68 9 438.28 7.74 442.69 7.74C446.65 7.74 449.8 9 452.32 11.34C454.75 13.77 456.28 17.01 456.82 20.97H426.85C427.57 17.01 429.28 13.77 431.98 11.34V11.34Z" fill="#01578E"/>
</svg>
